<?xml version="1.0" encoding="UTF-8" standalone="no"?>
<!-- Created with Inkscape (http://www.inkscape.org/) -->
<svg
   xmlns:dc="http://purl.org/dc/elements/1.1/"
   xmlns:cc="http://web.resource.org/cc/"
   xmlns:rdf="http://www.w3.org/1999/02/22-rdf-syntax-ns#"
   xmlns:svg="http://www.w3.org/2000/svg"
   xmlns="http://www.w3.org/2000/svg"
   xmlns:sodipodi="http://inkscape.sourceforge.net/DTD/sodipodi-0.dtd"
   xmlns:inkscape="http://www.inkscape.org/namespaces/inkscape"
   sodipodi:docname="Electric.svg"
   sodipodi:docbase="D:\My Documents\Jimmy\TM sprites"
   height="90.000000px"
   width="90.000000px"
   inkscape:version="0.40+cvs"
   sodipodi:version="0.32"
   id="svg2"
   inkscape:export-filename="D:\My Documents\Jimmy\TM sprites\Dragon.png"
   inkscape:export-xdpi="90.000000"
   inkscape:export-ydpi="90.000000">
  <metadata
     id="metadata7">
    <rdf:RDF
       id="RDF9">
      <cc:Work
         id="Work11"
         rdf:about="">
        <dc:format
           id="format13">image/svg+xml</dc:format>
        <dc:type
           rdf:resource="http://purl.org/dc/dcmitype/StillImage"
           id="type15" />
      </cc:Work>
    </rdf:RDF>
  </metadata>
  <defs
     id="defs5" />
  <sodipodi:namedview
     inkscape:current-layer="svg2"
     inkscape:window-y="-4"
     inkscape:window-x="-4"
     inkscape:cy="45.000000"
     inkscape:cx="45.000000"
     inkscape:zoom="6.0333333"
     inkscape:window-height="721"
     inkscape:window-width="1024"
     inkscape:pageshadow="2"
     inkscape:pageopacity="0.0"
     borderopacity="1.0"
     bordercolor="#666666"
     pagecolor="#ffffff"
     id="base" />
  <path
     id="path1298"
     d="M 45.053003,10.937500 C 31.545833,12.052998 18.725307,21.729540 13.178001,36.437500 C 5.7816077,56.048114 13.977251,77.491968 31.646753,84.156250 C 49.316263,90.820536 69.594113,80.110614 76.990503,60.500000 C 84.386903,40.889388 76.222513,19.476782 58.553003,12.812500 C 54.135633,11.146430 49.555403,10.565667 45.053003,10.937500 z M 45.678003,40.375000 C 46.352713,40.629474 46.964223,41.483700 47.178003,43.062500 C 47.391793,44.641301 47.149913,46.743654 46.334253,48.906250 C 45.518603,51.068846 44.287413,52.861868 43.084253,53.906250 C 41.881103,54.950632 40.852713,55.191976 40.178003,54.937500 C 39.503303,54.683026 38.891793,53.828801 38.678003,52.250000 C 38.464223,50.671200 38.737353,48.537597 39.553003,46.375000 C 40.368663,44.212405 41.568603,42.450632 42.771753,41.406250 C 43.974913,40.361869 45.003293,40.120524 45.678003,40.375000 z "
     style="fill:#303030;fill-opacity:1.0000000;fill-rule:nonzero;stroke:none;stroke-width:2.5000000;stroke-linecap:square;stroke-linejoin:miter;stroke-miterlimit:4.0000000;stroke-dashoffset:0.00000000;stroke-opacity:1.0000000" />
  <path
     id="path2827"
     d="M 45.209253,13.406250 C 32.708383,14.451492 20.750297,23.449684 15.521755,37.312500 C 8.5503727,55.796253 16.273745,75.684348 32.521753,81.812500 C 48.769773,87.940649 67.675373,78.108753 74.646753,59.625000 C 81.618143,41.141247 73.894773,21.253149 57.646753,15.125000 C 53.584753,13.592963 49.376213,13.057836 45.209253,13.406250 z M 45.146753,37.750000 C 45.617763,37.751824 46.091453,37.857167 46.553003,38.031250 C 48.399243,38.727583 49.361663,40.613400 49.646753,42.718750 C 49.931843,44.824102 49.622583,47.308081 48.678003,49.812500 C 47.733433,52.316920 46.344933,54.419803 44.740503,55.812500 C 43.136083,57.205197 41.149243,57.977581 39.303003,57.281250 C 37.456773,56.584917 36.494343,54.699101 36.209253,52.593750 C 35.924163,50.488398 36.264683,47.973170 37.209253,45.468750 C 38.153833,42.964329 39.511083,40.892698 41.115503,39.500000 C 42.318823,38.455477 43.733753,37.744528 45.146753,37.750000 z "
     style="fill:#f7bf01;fill-opacity:1.0000000;fill-rule:nonzero;stroke:none;stroke-width:2.5000000;stroke-linecap:square;stroke-linejoin:miter;stroke-miterlimit:4.0000000;stroke-dashoffset:0.00000000;stroke-opacity:1.0000000" />
  <path
     id="path5967"
     d="M 45.203733,13.406250 C 35.191843,14.243379 25.591033,20.234342 19.453730,29.687500 L 38.703733,42.500000 C 39.421773,41.326473 40.204923,40.285623 41.109983,39.500000 C 42.313303,38.455477 43.728233,37.744528 45.141233,37.750000 C 45.612243,37.751824 46.085933,37.857167 46.547483,38.031250 C 48.393723,38.727583 49.356143,40.613400 49.641233,42.718750 C 49.839433,44.182441 49.625083,45.853161 49.234983,47.562500 L 77.047483,47.562500 C 77.735453,33.176033 70.360063,19.922071 57.641233,15.125000 C 53.579233,13.592963 49.370693,13.057836 45.203733,13.406250 z M 13.547480,44.656250 C 10.764410,60.796869 18.409429,76.491934 32.516233,81.812500 C 47.162293,87.336452 63.895033,79.809499 72.172483,64.750000 L 48.828733,49.218750 C 48.760773,49.420352 48.748693,49.610444 48.672483,49.812500 C 47.727913,52.316920 46.339413,54.419803 44.734983,55.812500 C 43.130563,57.205197 41.143723,57.977581 39.297483,57.281250 C 37.451253,56.584917 36.488823,54.699101 36.203733,52.593750 C 35.918643,50.488398 36.259163,47.973170 37.203733,45.468750 C 37.267733,45.299056 37.354743,45.165644 37.422483,45.000000 L 13.547480,44.656250 z "
     style="fill:#f7c738;fill-opacity:1.0000000;fill-rule:nonzero;stroke:none;stroke-width:2.5000000;stroke-linecap:square;stroke-linejoin:miter;stroke-miterlimit:4.0000000;stroke-dashoffset:0.00000000;stroke-opacity:1.0000000" />
  <path
     id="path5977"
     d="M 45.203733,13.406250 C 38.058503,14.003687 31.151513,17.282783 25.516233,22.500000 L 38.797483,42.343750 C 39.493923,41.233742 40.243133,40.252455 41.109983,39.500000 C 42.313303,38.455477 43.728233,37.744528 45.141233,37.750000 C 45.612243,37.751824 46.085933,37.857167 46.547483,38.031250 C 48.393723,38.727583 49.356143,40.613400 49.641233,42.718750 C 49.772003,43.684515 49.733283,44.753215 49.609983,45.843750 L 77.109983,44.562500 C 76.696503,31.368568 69.468573,19.585834 57.641233,15.125000 C 53.579233,13.592963 49.370693,13.057836 45.203733,13.406250 z M 36.578733,47.812500 L 13.109980,53.000000 C 13.733286,65.936105 20.878015,77.422994 32.516233,81.812500 C 46.158423,86.957828 61.607733,80.750220 70.359983,67.718750 L 47.797483,51.531250 C 46.934843,53.236268 45.933893,54.771808 44.734983,55.812500 C 43.130563,57.205197 41.143723,57.977581 39.297483,57.281250 C 37.451253,56.584917 36.488823,54.699101 36.203733,52.593750 C 36.008613,51.152847 36.194683,49.502517 36.578733,47.812500 z "
     style="fill:#f7d758;fill-opacity:1.0000000;fill-rule:nonzero;stroke:none;stroke-width:2.5000000;stroke-linecap:square;stroke-linejoin:miter;stroke-miterlimit:4.0000000;stroke-dashoffset:0.00000000;stroke-opacity:1.0000000" />
  <path
     id="path5983"
     d="M 45.203733,13.406250 C 41.965933,13.676974 38.792453,14.497156 35.734983,15.781250 L 39.203733,41.718750 C 39.793513,40.878430 40.413493,40.104573 41.109983,39.500000 C 42.313303,38.455477 43.728233,37.744528 45.141233,37.750000 C 45.612243,37.751824 46.085933,37.857167 46.547483,38.031250 C 48.393723,38.727583 49.356143,40.613400 49.641233,42.718750 C 49.700073,43.153304 49.633383,43.661334 49.641233,44.125000 L 75.641233,35.531250 C 72.933193,26.237070 66.665073,18.528458 57.641233,15.125000 C 53.579233,13.592963 49.370693,13.057836 45.203733,13.406250 z M 36.234983,49.562500 L 14.547480,61.437500 C 17.260947,70.717009 23.502913,78.413008 32.516233,81.812500 C 43.713453,86.035675 56.101703,82.544402 65.047483,74.000000 L 45.953733,54.406250 C 45.553083,54.885175 45.172333,55.432865 44.734983,55.812500 C 43.130563,57.205197 41.143723,57.977581 39.297483,57.281250 C 37.451253,56.584917 36.488823,54.699101 36.203733,52.593750 C 36.076873,51.656955 36.116003,50.624535 36.234983,49.562500 z "
     style="fill:#f7e797;fill-opacity:1.0000000;fill-rule:nonzero;stroke:none;stroke-width:2.5000000;stroke-linecap:square;stroke-linejoin:miter;stroke-miterlimit:4.0000000;stroke-dashoffset:0.00000000;stroke-opacity:1.0000000" />
  <path
     id="path5986"
     d="M 45.203733,13.406250 C 44.165393,13.493069 43.137273,13.711465 42.109983,13.906250 L 42.109983,38.843750 C 43.073883,38.214544 44.092033,37.745937 45.141233,37.750000 C 45.612243,37.751824 46.085933,37.857167 46.547483,38.031250 C 48.204293,38.656140 49.071213,40.285247 49.453733,42.125000 L 70.641233,25.281250 C 67.355273,20.790554 63.016893,17.152499 57.641233,15.125000 C 53.579233,13.592963 49.370693,13.057836 45.203733,13.406250 z M 36.234983,52.656250 L 17.141230,67.875000 C 20.501324,74.171002 25.698833,79.241229 32.516233,81.812500 C 39.126713,84.305730 46.133613,84.016959 52.641233,81.718750 L 44.891233,55.625000 C 44.834433,55.676590 44.792343,55.762711 44.734983,55.812500 C 43.130563,57.205197 41.143723,57.977581 39.297483,57.281250 C 37.472303,56.592859 36.532123,54.732512 36.234983,52.656250 z "
     style="stroke-opacity:1.0000000;stroke-dashoffset:0.00000000;stroke-miterlimit:4.0000000;stroke-linejoin:miter;stroke-linecap:square;stroke-width:2.5000000;stroke:none;fill-rule:nonzero;fill-opacity:1.0000000;fill:#f7f7b7" />
  <path
     id="path5991"
     d="M 45.828733,13.437500 L 45.828733,37.875000 C 46.069813,37.923428 46.310783,37.941977 46.547483,38.031250 C 48.144163,38.633458 48.983053,40.183389 49.391233,41.937500 L 65.328733,19.718750 C 63.020183,17.854488 60.518813,16.210318 57.641233,15.125000 C 53.782453,13.669613 49.790713,13.190773 45.828733,13.437500 z M 36.297483,52.875000 L 18.641230,70.531250 C 21.992192,75.585559 26.675783,79.609698 32.516233,81.812500 C 35.749673,83.032036 39.093533,83.455755 42.422483,83.468750 L 42.422483,57.156250 C 41.392323,57.538410 40.331293,57.671164 39.297483,57.281250 C 37.541453,56.618939 36.632063,54.854878 36.297483,52.875000 z "
     style="fill:#f7f7f7;fill-opacity:1.0000000;fill-rule:nonzero;stroke:none;stroke-width:2.5000000;stroke-linecap:square;stroke-linejoin:miter;stroke-miterlimit:4.0000000;stroke-dashoffset:0.00000000;stroke-opacity:1.0000000" />
  <path
     style="fill:#f7df78;fill-opacity:1.0000000;fill-rule:nonzero;stroke:none;stroke-width:2.5000000;stroke-linecap:square;stroke-linejoin:miter;stroke-miterlimit:4.0000000;stroke-dashoffset:0.00000000;stroke-opacity:1.0000000"
     d="M 49.034288,33.437363 C 46.001707,32.177330 42.592776,32.781019 39.646035,34.612576 C 36.699293,36.444133 34.137783,39.480748 32.536928,43.333597 C 30.936075,47.186446 30.579455,51.173030 31.360599,54.553519 C 32.141743,57.934007 34.119122,60.775700 37.151703,62.035734 C 40.184284,63.295768 43.593215,62.692078 46.539956,60.860522 C 49.486698,59.028965 52.060198,55.963492 53.661053,52.110643 C 55.261907,48.257794 55.606536,44.300067 54.825392,40.919579 C 54.044248,37.539091 52.066869,34.697398 49.034288,33.437363 z M 48.075048,35.746011 C 50.234415,36.643225 51.740291,38.701877 52.386062,41.496527 C 53.031834,44.291176 52.767650,47.745268 51.352406,51.151403 C 49.937161,54.557538 47.663805,57.210661 45.227734,58.724809 C 42.791663,60.238956 40.270309,60.624301 38.110943,59.727087 C 35.951576,58.829873 34.445701,56.771220 33.799929,53.976571 C 33.154157,51.181921 33.430331,47.698972 34.845576,44.292837 C 36.260821,40.886702 38.522186,38.262436 40.958257,36.748289 C 43.394328,35.234141 45.915682,34.848797 48.075048,35.746011 z "
     id="path1363" />
  <path
     style="fill:#f7d758;fill-opacity:1.0000000;fill-rule:evenodd;stroke:none;stroke-width:1.0000000px;stroke-linecap:butt;stroke-linejoin:miter;stroke-opacity:1.0000000"
     d="M 50.312500 34.187500 C 49.910652 34.405756 49.485320 34.595553 49.218750 34.968750 C 48.971668 35.314664 49.040357 35.937572 49.187500 36.625000 C 50.687524 37.702258 51.860914 39.275231 52.375000 41.500000 C 53.020771 44.294647 52.758994 47.750115 51.343750 51.156250 C 49.928505 54.562386 47.654821 57.204602 45.218750 58.718750 C 43.191901 59.978545 41.168562 60.235341 39.281250 59.843750 C 39.016096 60.217898 38.819327 60.619233 38.781250 61.000000 C 38.743059 61.381915 38.713709 61.901912 38.718750 62.468750 C 41.323717 63.006264 44.083489 62.396413 46.531250 60.875000 C 49.477993 59.043442 52.055395 55.977849 53.656250 52.125000 C 55.257104 48.272153 55.593644 44.286738 54.812500 40.906250 C 54.152374 38.049488 52.596092 35.645324 50.312500 34.187500 z "
     id="path2925" />
  <path
     id="path5753"
     d="M 45.209255,13.406250 C 32.708387,14.451492 20.750297,23.449684 15.521755,37.312500 C 8.5503720,55.796253 16.273747,75.684348 32.521755,81.812499 C 48.769777,87.940649 67.675376,78.108749 74.646756,59.625000 C 81.618146,41.141247 73.894776,21.253149 57.646756,15.125000 C 53.584756,13.592963 49.376215,13.057836 45.209255,13.406250 z M 45.271755,14.343750 C 49.307055,14.006345 53.373616,14.517980 57.303006,16.000000 C 73.016156,21.926415 80.584106,41.219182 73.771756,59.281250 C 66.959136,77.344069 48.579057,86.864069 32.865505,80.937499 C 17.152369,75.011082 9.5844160,55.718318 16.396755,37.656250 C 21.506006,24.109718 33.166619,15.355903 45.271755,14.343750 z "
     style="fill:#78788f;fill-opacity:1.0000000;fill-rule:nonzero;stroke:none;stroke-width:1.8750000;stroke-linecap:square;stroke-linejoin:miter;stroke-miterlimit:4.0000000;stroke-dashoffset:0.00000000;stroke-opacity:1.0000000" />
</svg>
